<svg width="40" height="41" viewBox="0 0 40 41" fill="none" xmlns="http://www.w3.org/2000/svg">
<rect y="0.5" width="40" height="40" rx="2" fill="#C71002"/>
<path d="M20.499 15.0176C17.253 15.0176 14.5635 17.6607 14.5635 20.9531C14.5635 24.2454 17.2066 26.8885 20.499 26.8885C23.7913 26.8885 26.4344 24.199 26.4344 20.9531C26.4344 17.7071 23.7449 15.0176 20.499 15.0176ZM20.499 24.7555C18.4123 24.7555 16.6965 23.0398 16.6965 20.9531C16.6965 18.8664 18.4123 17.1506 20.499 17.1506C22.5857 17.1506 24.3014 18.8664 24.3014 20.9531C24.3014 23.0398 22.5857 24.7555 20.499 24.7555Z" fill="white"/>
<path d="M26.667 16.2237C27.4097 16.2237 28.0118 15.6216 28.0118 14.8789C28.0118 14.1362 27.4097 13.5342 26.667 13.5342C25.9243 13.5342 25.3223 14.1362 25.3223 14.8789C25.3223 15.6216 25.9243 16.2237 26.667 16.2237Z" fill="white"/>
<path d="M30.1452 11.4012C28.9395 10.1492 27.2238 9.5 25.2762 9.5H15.7238C11.6895 9.5 9 12.1895 9 16.2238V25.7298C9 27.7238 9.64919 29.4395 10.9476 30.6915C12.1996 31.8972 13.869 32.5 15.7702 32.5H25.2298C27.2238 32.5 28.8931 31.8508 30.0988 30.6915C31.3508 29.4859 32 27.7702 32 25.7762V16.2238C32 14.2762 31.3508 12.6069 30.1452 11.4012ZM29.9597 25.7762C29.9597 27.2137 29.4496 28.373 28.6149 29.1613C27.7802 29.9496 26.621 30.3669 25.2298 30.3669H15.7702C14.379 30.3669 13.2198 29.9496 12.3851 29.1613C11.5504 28.3266 11.1331 27.1673 11.1331 25.7298V16.2238C11.1331 14.8327 11.5504 13.6734 12.3851 12.8387C13.1734 12.0504 14.379 11.6331 15.7702 11.6331H25.3226C26.7137 11.6331 27.873 12.0504 28.7077 12.8851C29.496 13.7198 29.9597 14.879 29.9597 16.2238V25.7762Z" fill="white"/>
</svg>
