<svg width="40" height="41" viewBox="0 0 40 41" fill="none" xmlns="http://www.w3.org/2000/svg">
<rect y="0.5" width="40" height="40" rx="2" fill="#C71002"/>
<path d="M30.9032 18.342C28.8485 18.347 26.8441 17.7032 25.1732 16.5017V24.8813C25.1727 26.4333 24.7005 27.9482 23.8198 29.2233C22.9391 30.4984 21.6919 31.473 20.2449 32.0168C18.7979 32.5606 17.2202 32.6477 15.7226 32.2664C14.2251 31.8851 12.8791 31.0536 11.8647 29.883C10.8503 28.7125 10.2157 27.2587 10.046 25.7161C9.87618 24.1735 10.1792 22.6156 10.9146 21.2507C11.65 19.8858 12.7826 18.779 14.1611 18.0782C15.5395 17.3775 17.0981 17.1162 18.6284 17.3293V21.5439C17.9281 21.3227 17.1762 21.3293 16.4799 21.563C15.7836 21.7966 15.1787 22.2453 14.7514 22.845C14.3241 23.4446 14.0964 24.1646 14.1007 24.902C14.105 25.6395 14.3412 26.3567 14.7755 26.9512C15.2098 27.5458 15.8199 27.9873 16.5189 28.2127C17.2178 28.4381 17.9698 28.4359 18.6674 28.2063C19.365 27.9768 19.9726 27.5316 20.4034 26.9345C20.8341 26.3374 21.0661 25.6188 21.0661 24.8813V8.5H25.1732C25.1704 8.84844 25.1994 9.1964 25.2601 9.53948C25.4028 10.3054 25.6995 11.034 26.1321 11.6807C26.5648 12.3274 27.1242 12.8787 27.7762 13.3007C28.7037 13.9169 29.7912 14.2453 30.9032 14.245V18.342Z" fill="white"/>
</svg>
