<svg width="91" height="121" viewBox="0 0 91 121" fill="none" xmlns="http://www.w3.org/2000/svg">
<path d="M88.1676 30.0892H65.6678V1.9648C65.6678 1.46753 65.4703 0.99063 65.1186 0.639007C64.767 0.287384 64.2901 0.0898438 63.7928 0.0898438L56.2929 0.0898438C55.7956 0.0898438 55.3187 0.287384 54.9671 0.639007C54.6155 0.99063 54.4179 1.46753 54.4179 1.9648V30.0892H52.5429C52.0457 30.0892 51.5688 30.2867 51.2171 30.6384C50.8655 30.99 50.668 31.4669 50.668 31.9642C50.668 32.4614 50.8655 32.9383 51.2171 33.29C51.5688 33.6416 52.0457 33.8391 52.5429 33.8391H86.2926V37.589H60.0429C59.5456 37.589 59.0687 37.7866 58.7171 38.1382C58.3654 38.4898 58.1679 38.9667 58.1679 39.464C58.1679 39.9613 58.3654 40.4382 58.7171 40.7898C59.0687 41.1414 59.5456 41.339 60.0429 41.339H82.3945L80.6227 64.4704C78.6069 63.7736 76.4339 63.6682 74.3602 64.1666C74.2646 64.1891 74.1727 64.2172 74.0715 64.2416C73.6989 64.3407 73.3316 64.4583 72.9709 64.5941C72.8471 64.641 72.7252 64.6841 72.5959 64.7347C72.1446 64.9199 71.7062 65.1347 71.2834 65.3778C70.2377 64.7589 69.0976 64.3155 67.9084 64.0654C67.6651 64.0086 67.413 64.001 67.1668 64.0431C66.9205 64.0852 66.6852 64.176 66.4745 64.3103C66.2639 64.4446 66.0822 64.6196 65.9402 64.8251C65.7981 65.0306 65.6986 65.2624 65.6473 65.5068C65.5961 65.7513 65.5943 66.0036 65.6419 66.2488C65.6895 66.494 65.7857 66.7272 65.9247 66.9348C66.0637 67.1423 66.2428 67.32 66.4515 67.4573C66.6601 67.5947 66.8941 67.689 67.1397 67.7347C68.2296 67.9686 69.2542 68.4412 70.1396 69.1184C70.4652 69.3645 70.8622 69.4976 71.2703 69.4976C71.6784 69.4976 72.0753 69.3645 72.4009 69.1184C72.7073 68.8881 73.0314 68.6825 73.3702 68.5034C73.4659 68.4509 73.5671 68.4134 73.6646 68.3665C73.9085 68.2453 74.1588 68.1376 74.4146 68.044C74.5196 68.0065 74.6265 67.9803 74.7315 67.9484C74.9909 67.8677 75.2544 67.8007 75.5208 67.7478C75.6165 67.729 75.7083 67.7178 75.8077 67.7028C76.0934 67.659 76.3814 67.6321 76.6702 67.6222C76.7471 67.6222 76.8258 67.6222 76.9027 67.6222C77.216 67.6204 77.5292 67.6385 77.8402 67.6765L78.0146 67.6972C78.3405 67.746 78.663 67.8155 78.9802 67.9053L79.1189 67.9428C79.4391 68.0418 79.7523 68.1621 80.0564 68.3028C80.1052 68.3253 80.1558 68.3403 80.2027 68.3646C80.2495 68.389 80.272 68.4078 80.3095 68.4265L76.6458 116.337H60.0429C59.5456 116.337 59.0687 116.535 58.7171 116.887C58.3654 117.238 58.1679 117.715 58.1679 118.212C58.1679 118.71 58.3654 119.187 58.7171 119.538C59.0687 119.89 59.5456 120.087 60.0429 120.087H78.3839C78.8575 120.089 79.314 119.911 79.6618 119.589C80.0096 119.268 80.2229 118.827 80.2589 118.355L84.1514 67.5528L86.1538 41.339H88.1676C88.6649 41.339 89.1418 41.1414 89.4934 40.7898C89.845 40.4382 90.0426 39.9613 90.0426 39.464V31.9642C90.0426 31.4669 89.845 30.99 89.4934 30.6384C89.1418 30.2867 88.6649 30.0892 88.1676 30.0892ZM61.9179 30.0892H58.1679V3.83976H61.9179V30.0892Z" fill="#CE0E2D"/>
<path d="M59.5528 64.501C59.3771 64.2939 59.1585 64.1275 58.9121 64.0132C58.6657 63.8989 58.3975 63.8395 58.1259 63.8391H58.0509C57.7808 63.8387 57.5139 63.8975 57.269 64.0116C56.3447 64.4354 55.3941 64.8179 54.4566 65.1985V39.4646C54.4566 38.9674 54.259 38.4905 53.9074 38.1389C53.5558 37.7872 53.0789 37.5897 52.5816 37.5897H46.9435V35.7147C46.9435 35.2175 46.746 34.7406 46.3944 34.3889C46.0427 34.0373 45.5658 33.8398 45.0685 33.8398H39.4305V31.9648C39.4305 31.4675 39.2329 30.9906 38.8813 30.639C38.5297 30.2874 38.0528 30.0898 37.5555 30.0898H22.5331C22.0359 30.0898 21.559 30.2874 21.2073 30.639C20.8557 30.9906 20.6582 31.4675 20.6582 31.9648V33.8398H15.0201C14.5228 33.8398 14.0459 34.0373 13.6943 34.3889C13.3427 34.7406 13.1451 35.2175 13.1451 35.7147V37.5897H7.50892C7.01165 37.5897 6.53474 37.7872 6.18311 38.1389C5.83148 38.4905 5.63394 38.9674 5.63394 39.4646V65.2341C4.65708 64.8441 3.68396 64.4485 2.73335 64.0116C2.34861 63.8464 1.92206 63.8048 1.51263 63.8924C1.1032 63.9801 0.731104 64.1927 0.447745 64.501C0.271594 64.7078 0.142468 64.9503 0.0693032 65.2119C-0.00386201 65.4735 -0.0193207 65.7478 0.0239985 66.016L8.58516 118.515C8.6564 118.954 8.88171 119.354 9.22078 119.643C9.55984 119.931 9.99053 120.09 10.4358 120.09H49.5647C50.0097 120.09 50.4402 119.932 50.7792 119.643C51.1182 119.355 51.3437 118.956 51.4153 118.517L59.9765 66.0178C60.0201 65.7494 60.0048 65.4747 59.9316 65.2128C59.8585 64.9509 59.7292 64.708 59.5528 64.501ZM46.9435 41.3396H50.7047V66.5597C50.1422 66.7472 49.5891 66.9347 49.0172 67.1222C48.3029 67.3397 47.6148 67.5347 46.9398 67.7184L46.9435 41.3396ZM39.4305 37.5897H43.1936V68.5959C42.9198 68.6503 42.6573 68.7084 42.3723 68.7609L41.8098 68.864C41.0823 68.9915 40.3248 69.1153 39.5073 69.239L39.4267 69.2484L39.4305 37.5897ZM31.9193 33.8398H35.6805V69.6515C35.3899 69.6834 35.0974 69.7228 34.8049 69.7453H34.7561C34.2424 69.7828 33.753 69.8128 33.2862 69.839H33.2449C32.7837 69.8634 32.343 69.884 31.9193 69.8971V33.8398ZM24.4081 35.7147V33.8398H28.1693V69.9103C27.2881 69.8821 26.3431 69.8296 25.2969 69.7565H25.2462C24.965 69.7359 24.6837 69.6984 24.4081 69.6684V35.7147ZM16.8951 39.4646V37.5897H20.6582V69.254L20.4875 69.2353C19.6775 69.1172 18.9257 68.9934 18.1963 68.8603L17.6676 68.7628C17.4032 68.714 17.1538 68.6597 16.8951 68.6072V39.4646ZM9.3839 41.3396H13.1451V67.7334C12.4457 67.5459 11.7295 67.3416 10.9795 67.1128C10.4433 66.9497 9.9164 66.7641 9.3839 66.5878V41.3396ZM47.971 116.338H12.0314L10.1958 105.088H49.8047L47.971 116.338ZM50.2022 101.338H9.89015L6.9258 82.5888H23.1913L28.6981 88.268C29.0583 88.6189 29.5414 88.8153 30.0443 88.8153C30.5472 88.8153 31.0303 88.6189 31.3906 88.268L36.8974 82.5888H53.1628L50.2022 101.338ZM54.0834 78.8388H36.1043C35.854 78.8381 35.6061 78.8875 35.3752 78.9841C35.1443 79.0807 34.9351 79.2226 34.7599 79.4013L30.0443 84.2762L25.3287 79.4013C25.1535 79.2226 24.9443 79.0807 24.7134 78.9841C24.4826 78.8875 24.2347 78.8381 23.9844 78.8388H5.91706L4.27083 68.7422L4.86332 68.9765C5.53269 69.2372 6.20956 69.479 6.8883 69.7153C7.88204 70.0621 8.88141 70.3959 9.88827 70.7015C10.7301 70.9565 11.5383 71.189 12.3257 71.399C13.1132 71.609 13.9139 71.8096 14.7238 71.9971L14.9113 72.044C16.4113 72.3777 18.0538 72.6721 19.9363 72.944C20.4613 73.0208 20.9919 73.0733 21.5225 73.1315L23.0938 73.3039C23.7125 73.3771 24.3331 73.4521 24.9687 73.4914C26.8606 73.6283 28.4393 73.6921 29.9712 73.6921H30.1249C31.6062 73.6921 33.1399 73.6283 35.0224 73.4933C35.6918 73.4446 36.3499 73.3658 37.008 73.2852L38.508 73.1202C39.0217 73.0715 39.5336 73.0208 40.0398 72.9458C41.9148 72.6721 43.5667 72.3833 45.0648 72.0458L45.4735 71.9446C46.9735 71.5996 48.4735 71.1946 50.0916 70.7034C51.1341 70.3884 52.1541 70.0453 53.1853 69.6853C53.8322 69.4565 54.4809 69.2278 55.1241 68.9784L55.7128 68.744L54.0834 78.8388Z" fill="#CE0E2D"/>
</svg>
