<svg width="22" height="17" viewBox="0 0 22 17" fill="none" xmlns="http://www.w3.org/2000/svg">
<path d="M10.9846 12.6996C10.2753 12.6996 9.56606 12.4624 8.96104 11.9817L0 4.87711V14.7996C0 15.959 0.922107 16.8996 2.05962 16.8996H19.9096C21.0471 16.8996 21.9692 15.9594 21.9692 14.7996V4.87711L13.0099 11.9865C12.4049 12.4634 11.6926 12.6996 10.9846 12.6996ZM0.698982 3.65648L9.8042 10.8796C10.4989 11.4309 11.4721 11.4309 12.1667 10.8796L21.272 3.65648C21.6732 3.30648 21.9692 2.76836 21.9692 2.19961C21.9692 1.0398 21.0467 0.0996094 19.9096 0.0996094H2.05962C0.922107 0.0996094 0 1.0398 0 2.19961C0 2.76836 0.257881 3.30648 0.698982 3.65648Z" fill="#C71002"/>
</svg>
