<svg width="23" height="30" viewBox="0 0 23 30" fill="none" xmlns="http://www.w3.org/2000/svg">
<path d="M11.5338 1C5.8641 1 1.26709 5.70123 1.26709 11.4994C1.26709 15.7326 2.70924 16.9148 10.4804 28.4352C10.99 29.1883 12.0797 29.1883 12.5893 28.4352C20.3567 16.9132 21.8004 15.732 21.8004 11.4994C21.8004 5.70123 17.2018 1 11.5338 1ZM11.5338 15.825C9.17403 15.825 7.25598 13.8629 7.25598 11.4502C7.25598 9.03754 9.17563 7.07545 11.5338 7.07545C13.8919 7.07545 15.8115 9.03754 15.8115 11.4502C15.8115 13.8629 13.8919 15.825 11.5338 15.825Z" stroke="#CE0E2D" stroke-width="2"/>
</svg>
