<svg width="81" height="80" viewBox="0 0 81 80" fill="none" xmlns="http://www.w3.org/2000/svg">
<path d="M25.5055 46.5253C26.2627 46.5253 26.8357 46.3411 27.2245 45.9728C27.6133 45.5839 27.9101 44.8574 28.1147 43.7932C28.4422 43.7932 28.7901 43.8751 29.1585 44.0388C29.1585 46.4946 28.8719 48.5616 28.2989 50.2397H16.5725C16.3474 48.93 16.2348 47.876 16.2348 47.0779C19.632 43.4965 21.525 41.4091 21.9139 40.8156C22.3027 40.2221 22.6608 39.6389 22.9883 39.0658C23.4794 38.1654 23.725 37.2342 23.725 36.2724C23.725 35.3105 23.4897 34.5738 23.019 34.0622C22.5687 33.5505 21.9957 33.2947 21.2999 33.2947C19.8878 33.2947 18.9771 34.1849 18.5678 35.9654C18.4041 35.9859 18.1995 35.9961 17.9539 35.9961C17.7083 35.9961 17.4116 35.9756 17.0637 35.9347C17.0432 35.4231 17.033 34.7887 17.033 34.0315C17.033 33.2538 17.0841 32.4454 17.1864 31.6064C18.8032 30.4603 20.5939 29.8873 22.5585 29.8873C24.5231 29.8873 26.0478 30.4296 27.1324 31.5143C28.2375 32.5784 28.7901 33.9189 28.7901 35.5356C28.7901 36.3133 28.6673 36.9579 28.4217 37.4696C28.1966 37.9607 28.0022 38.3496 27.8385 38.6361C27.6747 38.9226 27.4087 39.2705 27.0403 39.6798C26.672 40.0891 26.3548 40.437 26.0887 40.7235C25.8227 41.01 25.4031 41.4091 24.8301 41.9207L23.3566 43.2407C22.9678 43.5886 22.3743 44.1104 21.5762 44.8063C20.7985 45.4816 20.1436 46.0546 19.6115 46.5253H25.5055ZM37.2554 46.7095C37.5214 47.876 38.1661 48.4593 39.1893 48.4593C40.233 48.4593 40.8879 47.876 41.154 46.7095C41.3791 45.6863 41.4916 43.9467 41.4916 41.4909C41.4916 37.5003 41.3484 35.0035 41.0619 34.0008C40.7754 33.0389 40.407 32.4556 39.9568 32.251C39.6907 32.1282 39.3633 32.0668 38.9744 32.0668C37.9717 32.0668 37.3475 32.6603 37.1019 33.8473C36.8768 34.8091 36.7642 35.9756 36.7642 37.3468C36.7642 42.2174 36.9279 45.3383 37.2554 46.7095ZM44.6228 32.5887C46.0144 34.4101 46.7102 36.9886 46.7102 40.3244C46.7102 43.6602 46.0144 46.2183 44.6228 47.9988C43.2312 49.7588 41.3893 50.6388 39.0972 50.6388C36.8256 50.6388 35.0042 49.7588 33.6331 47.9988C32.2619 46.2183 31.5764 43.6602 31.5764 40.3244C31.5764 36.9886 32.2619 34.4101 33.6331 32.5887C35.0042 30.7673 36.8256 29.8566 39.0972 29.8566C41.3893 29.8566 43.2312 30.7673 44.6228 32.5887ZM54.8525 46.7095C55.1185 47.876 55.7632 48.4593 56.7864 48.4593C57.8301 48.4593 58.485 47.876 58.751 46.7095C58.9762 45.6863 59.0887 43.9467 59.0887 41.4909C59.0887 37.5003 58.9455 35.0035 58.6589 34.0008C58.3724 33.0389 58.0041 32.4556 57.5538 32.251C57.2878 32.1282 56.9604 32.0668 56.5715 32.0668C55.5687 32.0668 54.9446 32.6603 54.699 33.8473C54.4739 34.8091 54.3613 35.9756 54.3613 37.3468C54.3613 42.2174 54.525 45.3383 54.8525 46.7095ZM62.2199 32.5887C63.6115 34.4101 64.3073 36.9886 64.3073 40.3244C64.3073 43.6602 63.6115 46.2183 62.2199 47.9988C60.8282 49.7588 58.9864 50.6388 56.6943 50.6388C54.4227 50.6388 52.6013 49.7588 51.2302 47.9988C49.859 46.2183 49.1734 43.6602 49.1734 40.3244C49.1734 36.9886 49.859 34.4101 51.2302 32.5887C52.6013 30.7673 54.4227 29.8566 56.6943 29.8566C58.9864 29.8566 60.8282 30.7673 62.2199 32.5887Z" fill="#CE0E2D"/>
<circle cx="40.2812" cy="40.0784" r="38.5686" stroke="#CE0E2D" stroke-width="2.36134"/>
</svg>
