<svg width="80" height="80" viewBox="0 0 80 80" fill="none" xmlns="http://www.w3.org/2000/svg">
<g clip-path="url(#clip0_1085_699)">
<path d="M37.8514 39.7395C37.8538 39.2311 38.0221 38.7374 38.3308 38.3334C38.7469 37.7979 39.2214 37.3106 39.7457 36.8804C40.2187 36.4736 40.6523 36.0232 41.0409 35.5351C41.2853 35.1923 41.4119 34.7795 41.4017 34.3586C41.4075 34.1009 41.3613 33.8446 41.2659 33.6052C41.1705 33.3657 41.0277 33.148 40.8463 32.9649C40.6648 32.7819 40.4482 32.6373 40.2096 32.5399C39.971 32.4424 39.7152 32.394 39.4574 32.3976C38.943 32.3926 38.4458 32.5829 38.0661 32.93C37.6238 33.3562 37.3013 33.8911 37.1307 34.4811L35.0208 33.5605C35.2891 32.5331 35.8819 31.6197 36.7111 30.9563C37.5292 30.3412 38.5313 30.0209 39.5545 30.0474C40.3328 30.0393 41.1017 30.2179 41.7968 30.5681C42.4594 30.9008 43.019 31.4075 43.4156 32.0339C43.8177 32.6717 44.0262 33.4125 44.0157 34.1664C44.0242 34.8454 43.8414 35.5131 43.4882 36.0931C43.0416 36.7755 42.5006 37.3911 41.8812 37.9217C41.4083 38.3228 40.9634 38.7559 40.5497 39.2178C40.3124 39.4896 40.1805 39.8375 40.1781 40.1983C40.1847 40.4194 40.2177 40.6389 40.2761 40.8523H38.1191C37.9508 40.5049 37.8595 40.1253 37.8514 39.7395ZM39.2898 46.5714C39.0435 46.5776 38.7985 46.5337 38.5697 46.4421C38.341 46.3506 38.1333 46.2134 37.9592 46.039C37.7822 45.8661 37.6429 45.6585 37.5499 45.4292C37.4569 45.1999 37.4124 44.9539 37.419 44.7065C37.4132 44.4574 37.4581 44.2097 37.5509 43.9784C37.6438 43.7472 37.7827 43.5372 37.9592 43.3613C38.1316 43.1839 38.3387 43.0439 38.5677 42.9501C38.7966 42.8563 39.0424 42.8107 39.2898 42.8162C39.5386 42.8109 39.7859 42.8563 40.0166 42.9497C40.2474 43.043 40.4566 43.1824 40.6318 43.3592C40.8069 43.5361 40.9442 43.7467 41.0352 43.9784C41.1263 44.21 41.1693 44.4578 41.1615 44.7065C41.1681 44.9538 41.1236 45.1998 41.0308 45.429C40.938 45.6583 40.7989 45.8659 40.6222 46.039C40.4478 46.2134 40.2397 46.3505 40.0106 46.442C39.7816 46.5335 39.5363 46.5775 39.2898 46.5714Z" fill="#CE0E2D"/>
<path d="M24.3762 57.7883C24.164 57.7881 23.9544 57.7413 23.7624 57.651C23.5129 57.536 23.3019 57.3516 23.1544 57.1198C23.007 56.8881 22.9294 56.6187 22.9309 56.3441V28.2318C22.932 27.3032 23.3013 26.413 23.9579 25.7564C24.6144 25.0998 25.5047 24.7305 26.4332 24.7295H52.6022C53.5307 24.7305 54.4209 25.0998 55.0775 25.7564C55.7341 26.413 56.1034 27.3032 56.1044 28.2318V48.2492C56.1031 49.1776 55.7337 50.0675 55.0772 50.7239C54.4206 51.3803 53.5306 51.7495 52.6022 51.7505H33.0201C32.4333 51.7507 31.8653 51.9568 31.415 52.3329L25.2968 57.451C25.0389 57.6678 24.7131 57.7871 24.3762 57.7883ZM26.4332 26.6904C26.0246 26.691 25.6328 26.8535 25.3439 27.1424C25.055 27.4314 24.8924 27.8232 24.8919 28.2318V55.2322L30.1571 50.8289C30.9604 50.1581 31.9735 49.7903 33.0201 49.7896H52.6022C53.0107 49.7893 53.4024 49.6269 53.6914 49.3382C53.9804 49.0494 54.143 48.6577 54.1435 48.2492V28.2318C54.143 27.8232 53.9804 27.4314 53.6915 27.1424C53.4025 26.8535 53.0108 26.691 52.6022 26.6904H26.4332Z" fill="#CE0E2D"/>
</g>
<circle cx="39.8542" cy="40.0784" r="38.5686" stroke="#CE0E2D" stroke-width="2.36134"/>
<defs>
<clipPath id="clip0_1085_699">
<rect width="33.1735" height="33.0588" fill="white" transform="translate(22.9309 24.7295)"/>
</clipPath>
</defs>
</svg>
