<svg width="80" height="80" viewBox="0 0 80 80" fill="none" xmlns="http://www.w3.org/2000/svg">
<circle cx="40.2446" cy="40.0784" r="38.5686" fill="#CE0E2D" stroke="#CE0E2D" stroke-width="2.36134"/>
<path d="M34.958 47.1773C35.7734 47.1773 36.3905 46.9789 36.8093 46.5822C37.228 46.1635 37.5476 45.3811 37.768 44.235C38.1206 44.235 38.4953 44.3232 38.892 44.4995C38.892 47.1442 38.5834 49.3702 37.9663 51.1774H25.3379C25.0954 49.7669 24.9742 48.6319 24.9742 47.7723C28.6327 43.9155 30.6714 41.6675 31.0901 41.0283C31.5088 40.3892 31.8945 39.7611 32.2472 39.144C32.7761 38.1743 33.0406 37.1715 33.0406 36.1356C33.0406 35.0998 32.7871 34.3064 32.2802 33.7554C31.7954 33.2044 31.1783 32.9289 30.4289 32.9289C28.9082 32.9289 27.9275 33.8876 27.4867 35.8051C27.3104 35.8271 27.09 35.8381 26.8255 35.8381C26.5611 35.8381 26.2415 35.8161 25.8668 35.772C25.8448 35.221 25.8338 34.5378 25.8338 33.7224C25.8338 32.8849 25.8889 32.0143 25.9991 31.1107C27.7401 29.8765 29.6686 29.2594 31.7843 29.2594C33.9001 29.2594 35.542 29.8435 36.7101 31.0115C37.9002 32.1576 38.4953 33.6011 38.4953 35.3422C38.4953 36.1797 38.363 36.874 38.0986 37.4249C37.8561 37.9539 37.6468 38.3726 37.4705 38.6812C37.2941 38.9897 37.0076 39.3644 36.6109 39.8052C36.2142 40.246 35.8726 40.6206 35.5861 40.9292C35.2996 41.2377 34.8478 41.6675 34.2307 42.2185L32.6439 43.64C32.2251 44.0147 31.586 44.5767 30.7265 45.326C29.889 46.0533 29.1837 46.6704 28.6107 47.1773H34.958ZM45.3638 38.4828C46.642 37.9098 47.9974 37.6233 49.43 37.6233C50.8625 37.6233 52.1298 38.1743 53.2317 39.2762C54.3337 40.3561 54.8847 41.8438 54.8847 43.7392C54.8847 46.0533 54.1133 47.9487 52.5706 49.4253C51.0499 50.8799 49.1545 51.6072 46.8845 51.6072C44.6144 51.6072 42.5978 50.7586 40.8347 49.0616C41.2314 48.1801 41.6722 47.5409 42.1571 47.1442C43.3692 47.9817 44.7467 48.4005 46.2894 48.4005C47.3252 48.4005 48.1738 48.0478 48.8349 47.3426C49.5181 46.6373 49.8597 45.7007 49.8597 44.5326C49.8597 43.3425 49.5512 42.4168 48.9341 41.7556C48.339 41.0724 47.5567 40.7308 46.5869 40.7308C45.6392 40.7308 44.4932 41.1275 43.1488 41.9209L42.4546 41.5903L43.6116 30.0198H50.4879C51.8984 30.0198 52.835 29.4688 53.2979 28.3668C53.6505 28.3668 54.0252 28.455 54.4219 28.6313C54.3998 30.2622 54.0913 32.0584 53.4962 34.0199H45.8266L45.3638 38.4828Z" fill="white"/>
</svg>
