<svg width="114" height="113" viewBox="0 0 114 113" fill="none" xmlns="http://www.w3.org/2000/svg">
<path d="M21.4797 70.7773V66.3573C22.3752 65.7218 23.4297 64.9707 24.643 64.104C25.8563 63.2373 27.0841 62.284 28.3263 61.244C29.5975 60.204 30.7675 59.0918 31.8363 57.9073C32.9052 56.694 33.7719 55.4518 34.4363 54.1807C35.1297 52.8807 35.4763 51.5518 35.4763 50.194C35.4763 49.0385 35.173 48.0562 34.5663 47.2473C33.9597 46.4096 32.9775 45.9907 31.6197 45.9907C30.4641 45.9907 29.5686 46.294 28.933 46.9007C28.2975 47.5073 27.8352 48.2585 27.5463 49.154C27.2575 50.0496 27.0841 50.9451 27.0263 51.8407L21.1763 51.364C21.1763 50.0351 21.4075 48.7207 21.8697 47.4207C22.3319 46.0918 23.0108 44.8929 23.9063 43.824C24.8019 42.7262 25.8997 41.8596 27.1997 41.224C28.5286 40.5596 30.0597 40.2273 31.793 40.2273C33.6419 40.2273 35.2886 40.6318 36.733 41.4407C38.2063 42.2496 39.3475 43.3907 40.1563 44.864C40.9941 46.3373 41.413 48.0562 41.413 50.0207C41.413 51.494 41.1675 52.924 40.6763 54.3107C40.2141 55.6973 39.5352 57.0262 38.6397 58.2973C37.773 59.5685 36.7186 60.7818 35.4763 61.9373C34.2341 63.064 32.833 64.1185 31.273 65.1007C29.713 66.054 28.0375 66.9207 26.2463 67.7007L27.8063 65.2307H42.583V70.7773H21.4797ZM56.2144 71.2107C54.2788 71.2107 52.6611 70.8785 51.3611 70.214C50.0611 69.5207 49.0211 68.6107 48.2411 67.484C47.4611 66.3573 46.8688 65.1151 46.4644 63.7573C46.0599 62.3707 45.7855 60.9696 45.6411 59.554C45.5255 58.1096 45.4677 56.7518 45.4677 55.4807C45.4677 54.2962 45.5255 53.0107 45.6411 51.624C45.7855 50.2373 46.0455 48.8651 46.4211 47.5073C46.8255 46.1496 47.4177 44.9218 48.1977 43.824C48.9777 42.6973 50.0177 41.8018 51.3177 41.1373C52.6177 40.444 54.2499 40.0973 56.2144 40.0973C58.1788 40.0973 59.8111 40.4296 61.1111 41.094C62.4111 41.7585 63.4511 42.654 64.2311 43.7807C65.0111 44.9073 65.5888 46.1496 65.9644 47.5073C66.3688 48.8651 66.6288 50.2373 66.7444 51.624C66.8888 53.0107 66.9611 54.3107 66.9611 55.524C66.9611 56.7951 66.8888 58.1529 66.7444 59.5973C66.6288 61.0129 66.3688 62.414 65.9644 63.8007C65.5599 65.1585 64.9677 66.4007 64.1877 67.5273C63.4077 68.6251 62.3677 69.5207 61.0677 70.214C59.7677 70.8785 58.1499 71.2107 56.2144 71.2107ZM56.2144 65.4907C57.5433 65.4907 58.5399 65.0429 59.2044 64.1473C59.8688 63.2518 60.3022 62.0529 60.5044 60.5507C60.7355 59.0485 60.8511 57.4307 60.8511 55.6973C60.8511 53.8773 60.7355 52.2162 60.5044 50.714C60.3022 49.2118 59.8688 48.0273 59.2044 47.1607C58.5399 46.2651 57.5433 45.8173 56.2144 45.8173C55.2033 45.8173 54.3799 46.0773 53.7444 46.5973C53.1377 47.1173 52.6755 47.8396 52.3577 48.764C52.0688 49.6596 51.8666 50.714 51.7511 51.9273C51.6355 53.1118 51.5777 54.3685 51.5777 55.6973C51.5777 56.9685 51.6355 58.1962 51.7511 59.3807C51.8666 60.5651 52.0688 61.6196 52.3577 62.544C52.6755 63.4396 53.1377 64.1618 53.7444 64.7107C54.3799 65.2307 55.2033 65.4907 56.2144 65.4907ZM80.4624 71.2107C78.5269 71.2107 76.9091 70.8785 75.6091 70.214C74.3091 69.5207 73.2691 68.6107 72.4891 67.484C71.7091 66.3573 71.1169 65.1151 70.7124 63.7573C70.308 62.3707 70.0335 60.9696 69.8891 59.554C69.7735 58.1096 69.7158 56.7518 69.7158 55.4807C69.7158 54.2962 69.7735 53.0107 69.8891 51.624C70.0335 50.2373 70.2935 48.8651 70.6691 47.5073C71.0735 46.1496 71.6658 44.9218 72.4458 43.824C73.2258 42.6973 74.2658 41.8018 75.5658 41.1373C76.8658 40.444 78.498 40.0973 80.4624 40.0973C82.4269 40.0973 84.0591 40.4296 85.3591 41.094C86.6591 41.7585 87.6991 42.654 88.4791 43.7807C89.2591 44.9073 89.8369 46.1496 90.2124 47.5073C90.6169 48.8651 90.8769 50.2373 90.9924 51.624C91.1369 53.0107 91.2091 54.3107 91.2091 55.524C91.2091 56.7951 91.1369 58.1529 90.9924 59.5973C90.8769 61.0129 90.6169 62.414 90.2124 63.8007C89.808 65.1585 89.2158 66.4007 88.4358 67.5273C87.6558 68.6251 86.6158 69.5207 85.3158 70.214C84.0158 70.8785 82.398 71.2107 80.4624 71.2107ZM80.4624 65.4907C81.7913 65.4907 82.788 65.0429 83.4524 64.1473C84.1169 63.2518 84.5502 62.0529 84.7524 60.5507C84.9835 59.0485 85.0991 57.4307 85.0991 55.6973C85.0991 53.8773 84.9835 52.2162 84.7524 50.714C84.5502 49.2118 84.1169 48.0273 83.4524 47.1607C82.788 46.2651 81.7913 45.8173 80.4624 45.8173C79.4513 45.8173 78.628 46.0773 77.9924 46.5973C77.3858 47.1173 76.9235 47.8396 76.6058 48.764C76.3169 49.6596 76.1147 50.714 75.9991 51.9273C75.8835 53.1118 75.8258 54.3685 75.8258 55.6973C75.8258 56.9685 75.8835 58.1962 75.9991 59.3807C76.1147 60.5651 76.3169 61.6196 76.6058 62.544C76.9235 63.4396 77.3858 64.1618 77.9924 64.7107C78.628 65.2307 79.4513 65.4907 80.4624 65.4907Z" fill="#CE0E2D"/>
<circle cx="57.0551" cy="56.3325" r="54.4444" stroke="#CE0E2D" stroke-width="3.33333"/>
</svg>
