<svg width="303" height="389" viewBox="0 0 303 389" fill="none" xmlns="http://www.w3.org/2000/svg">
<path d="M0.517578 189.666L76.037 58.8623L227.076 58.8623L302.595 189.666L227.076 320.469L76.037 320.469L0.517578 189.666Z" fill="#F0183B"/>
<path d="M253.367 273.99L226.151 322.687L75.1122 322.687L54.5247 282.681C96.0352 248.148 215.036 249.456 253.367 273.99Z" fill="white"/>
<path d="M143.094 2.68589C147.034 -1.04272 153.251 -0.871238 156.979 3.06889C160.708 7.00903 160.536 13.2258 156.596 16.9544C152.656 20.683 146.439 20.5115 142.711 16.5714C138.982 12.6312 139.154 6.41449 143.094 2.68589ZM145.957 68.654L148.004 9.75614L151.685 9.88412L149.638 68.782L145.957 68.654Z" fill="#F0183B"/>
<path d="M133.596 147.686H127.738L120.867 138.249L118.302 140.909V147.686H113.426V125.52H118.302V135.21L127.295 125.52H133.185L124.16 134.925L133.596 147.686ZM141.654 147.686H136.778V125.52H141.654V147.686ZM166.351 147.686H160.651L155.902 140.593H152.07V147.686H147.194V125.52H157.327C159.965 125.52 162.013 126.164 163.47 127.452C164.947 128.739 165.686 130.534 165.686 132.835V132.898C165.686 134.692 165.243 136.16 164.356 137.299C163.491 138.418 162.351 139.242 160.936 139.769L166.351 147.686ZM160.746 133.151V133.088C160.746 132.032 160.409 131.241 159.733 130.713C159.058 130.185 158.118 129.921 156.915 129.921H152.07V136.286H157.01C158.213 136.286 159.132 136.001 159.765 135.431C160.419 134.861 160.746 134.101 160.746 133.151ZM190.406 125.52L181.445 147.844H177.138L168.177 125.52H173.56L179.355 141.131L185.15 125.52H190.406ZM138.701 180.686H133.603L131.576 175.714H122.204L120.177 180.686H115.205L124.705 158.362H129.202L138.701 180.686ZM129.835 171.408L126.89 164.22L123.945 171.408H129.835ZM158.905 163.016H152.16V180.686H147.284V163.016H140.539V158.52H158.905V163.016ZM184.821 180.686H179.976V166.215L173.738 175.683H173.612L167.437 166.31V180.686H162.655V158.52H167.912L173.738 167.893L179.565 158.52H184.821V180.686Z" fill="white"/>
</svg>
