<svg width="24" height="25" viewBox="0 0 24 25" fill="none" xmlns="http://www.w3.org/2000/svg">
<path d="M12.0727 3.0279C15.2025 3.0279 15.5731 3.03957 16.8095 3.09568C17.5529 3.10473 18.2892 3.24058 18.9865 3.49733C19.4921 3.6914 19.9513 3.98869 20.3345 4.37006C20.7177 4.75144 21.0165 5.20844 21.2115 5.71166C21.4694 6.40558 21.6059 7.13839 21.615 7.87823C21.6708 9.10873 21.6831 9.4776 21.6831 12.5924C21.6831 15.7073 21.6714 16.0762 21.615 17.3067C21.6059 18.0465 21.4694 18.7793 21.2115 19.4732C21.0165 19.9765 20.7177 20.4335 20.3345 20.8148C19.9513 21.1962 19.4921 21.4935 18.9865 21.6876C18.2892 21.9443 17.5529 22.0802 16.8095 22.0892C15.5737 22.1448 15.203 22.157 12.0727 22.157C8.94233 22.157 8.57168 22.1453 7.33584 22.0892C6.59245 22.0802 5.85613 21.9443 5.15888 21.6876C4.65324 21.4935 4.19404 21.1962 3.81084 20.8148C3.42763 20.4335 3.12891 19.9765 2.93391 19.4732C2.67594 18.7793 2.53943 18.0465 2.53034 17.3067C2.47452 16.0762 2.46224 15.7073 2.46224 12.5924C2.46224 9.4776 2.47396 9.10873 2.53034 7.87823C2.53943 7.13839 2.67594 6.40558 2.93391 5.71166C3.12891 5.20844 3.42763 4.75144 3.81084 4.37006C4.19404 3.98869 4.65324 3.6914 5.15888 3.49733C5.85613 3.24058 6.59245 3.10473 7.33584 3.09568C8.57224 3.04013 8.94288 3.0279 12.0727 3.0279ZM12.0727 0.925781C8.89097 0.925781 8.49019 0.939114 7.23983 0.995778C6.26692 1.01504 5.30434 1.19837 4.39303 1.53797C3.61128 1.83111 2.90321 2.29047 2.31822 2.88402C1.72129 3.46642 1.25932 4.17151 0.964601 4.95003C0.623365 5.85699 0.439154 6.81497 0.419802 7.78323C0.363983 9.02651 0.350586 9.42538 0.350586 12.5919C0.350586 15.7584 0.363983 16.1573 0.420918 17.4017C0.44027 18.3699 0.624481 19.3279 0.965717 20.2349C1.26011 21.0133 1.72169 21.7184 2.31822 22.3009C2.90353 22.8946 3.612 23.3539 4.39415 23.6469C5.30546 23.9865 6.26804 24.1699 7.24095 24.1891C8.4913 24.2447 8.89041 24.2591 12.0738 24.2591C15.2572 24.2591 15.6563 24.2458 16.9067 24.1891C17.8796 24.1699 18.8421 23.9865 19.7534 23.6469C20.5319 23.3466 21.2388 22.8879 21.829 22.3002C22.4191 21.7125 22.8795 21.0087 23.1808 20.2338C23.522 19.3268 23.7062 18.3688 23.7256 17.4006C23.7814 16.1573 23.7948 15.7584 23.7948 12.5919C23.7948 9.42538 23.7814 9.02651 23.7244 7.78212C23.7051 6.81386 23.5209 5.85588 23.1796 4.94892C22.8853 4.1705 22.4237 3.46542 21.8271 2.88291C21.2418 2.28923 20.5334 1.82985 19.7512 1.53686C18.8399 1.19726 17.8773 1.01393 16.9044 0.994667C15.6552 0.939114 15.2544 0.925781 12.0727 0.925781Z" fill="white"/>
<path d="M12.0699 6.60156C10.8793 6.60156 9.71549 6.95292 8.72557 7.6112C7.73566 8.26948 6.96412 9.20512 6.50851 10.2998C6.0529 11.3945 5.93369 12.599 6.16596 13.7611C6.39823 14.9232 6.97154 15.9907 7.81339 16.8285C8.65524 17.6664 9.72783 18.2369 10.8955 18.4681C12.0632 18.6993 13.2735 18.5806 14.3735 18.1272C15.4734 17.6738 16.4135 16.9059 17.075 15.9207C17.7364 14.9355 18.0894 13.7773 18.0894 12.5924C18.0894 11.0035 17.4552 9.47973 16.3264 8.35624C15.1975 7.23274 13.6664 6.60156 12.0699 6.60156ZM12.0699 16.4811C11.2971 16.4811 10.5416 16.253 9.89906 15.8257C9.25649 15.3984 8.75568 14.7911 8.45994 14.0805C8.1642 13.37 8.08682 12.5881 8.23758 11.8337C8.38835 11.0794 8.76049 10.3865 9.30695 9.84266C9.8534 9.29882 10.5496 8.92845 11.3076 8.7784C12.0655 8.62836 12.8512 8.70537 13.5652 8.99969C14.2791 9.29402 14.8894 9.79245 15.3187 10.4319C15.7481 11.0714 15.9772 11.8233 15.9772 12.5924C15.9772 13.6237 15.5656 14.6128 14.8328 15.3421C14.1 16.0714 13.1062 16.4811 12.0699 16.4811Z" fill="white"/>
<path d="M18.3285 7.76471C19.1054 7.76471 19.7352 7.13794 19.7352 6.36478C19.7352 5.59162 19.1054 4.96484 18.3285 4.96484C17.5517 4.96484 16.9219 5.59162 16.9219 6.36478C16.9219 7.13794 17.5517 7.76471 18.3285 7.76471Z" fill="white"/>
</svg>
