<svg width="40" height="41" viewBox="0 0 40 41" fill="none" xmlns="http://www.w3.org/2000/svg">
<rect y="0.5" width="40" height="40" rx="2" fill="#C71002"/>
<path d="M31.56 13.7491C30.6939 14.1312 29.7618 14.3889 28.7838 14.5042C29.7823 13.911 30.548 12.9712 30.9091 11.8503C29.9751 12.4003 28.9411 12.7994 27.8397 13.0149C26.9583 12.0828 25.7019 11.5 24.3117 11.5C21.6425 11.5 19.4785 13.6475 19.4785 16.2967C19.4785 16.6722 19.521 17.0381 19.6038 17.3897C15.5865 17.1895 12.0245 15.2802 9.6404 12.378C9.22432 13.0861 8.98615 13.91 8.98615 14.7899C8.98615 16.4538 9.83935 17.9222 11.1364 18.7822C10.3444 18.7571 9.59879 18.5411 8.94693 18.1818C8.94646 18.2018 8.94646 18.2222 8.94646 18.2426C8.94646 20.5662 10.6127 22.5045 12.8241 22.9458C12.4185 23.055 11.9915 23.1139 11.5505 23.1139C11.2387 23.1139 10.936 23.084 10.6409 23.0275C11.2564 24.933 13.0412 26.3202 15.156 26.3587C13.5018 27.6453 11.418 28.4122 9.15306 28.4122C8.76329 28.4122 8.3783 28.3895 8 28.3449C10.1397 29.7065 12.6801 30.5 15.4095 30.5C24.3007 30.5 29.1621 23.1912 29.1621 16.8525C29.1621 16.6446 29.1578 16.4372 29.1487 16.2313C30.0927 15.5564 30.9125 14.7111 31.56 13.7491Z" fill="white"/>
</svg>
