<svg width="20" height="19" viewBox="0 0 20 19" fill="none" xmlns="http://www.w3.org/2000/svg">
<path d="M9.54514 1.71173C12.0937 1.71173 12.3955 1.72123 13.4023 1.76692C14.0076 1.77429 14.6072 1.88491 15.1749 2.09397C15.5867 2.252 15.9606 2.49408 16.2726 2.80463C16.5847 3.11518 16.8279 3.48731 16.9867 3.89708C17.1968 4.46213 17.3079 5.05884 17.3153 5.66128C17.3608 6.66325 17.3708 6.96362 17.3708 9.5C17.3708 12.0364 17.3612 12.3367 17.3153 13.3387C17.3079 13.9412 17.1968 14.5379 16.9867 15.1029C16.8279 15.5127 16.5847 15.8848 16.2726 16.1954C15.9606 16.5059 15.5867 16.748 15.1749 16.906C14.6072 17.1151 14.0076 17.2257 13.4023 17.2331C12.396 17.2783 12.0941 17.2883 9.54514 17.2883C6.99613 17.2883 6.69432 17.2788 5.68799 17.2331C5.08266 17.2257 4.48308 17.1151 3.91532 16.906C3.50359 16.748 3.12967 16.5059 2.81763 16.1954C2.50559 15.8848 2.26235 15.5127 2.10357 15.1029C1.8935 14.5379 1.78235 13.9412 1.77494 13.3387C1.72949 12.3367 1.71949 12.0364 1.71949 9.5C1.71949 6.96362 1.72903 6.66325 1.77494 5.66128C1.78235 5.05884 1.8935 4.46213 2.10357 3.89708C2.26235 3.48731 2.50559 3.11518 2.81763 2.80463C3.12967 2.49408 3.50359 2.252 3.91532 2.09397C4.48308 1.88491 5.08266 1.77429 5.68799 1.76692C6.69478 1.72168 6.99658 1.71173 9.54514 1.71173ZM9.54514 0C6.95431 0 6.62796 0.0108566 5.60981 0.0569973C4.81759 0.0726796 4.03377 0.221964 3.29171 0.4985C2.65514 0.737195 2.07856 1.11125 1.60222 1.59457C1.11614 2.06881 0.739972 2.64295 0.499983 3.27689C0.22212 4.01541 0.0721194 4.79548 0.0563618 5.58392C0.0109088 6.59631 0 6.9211 0 9.49955C0 12.078 0.0109087 12.4028 0.0572708 13.4161C0.0730284 14.2045 0.223029 14.9846 0.500893 15.7231C0.740615 16.357 1.11647 16.9311 1.60222 17.4054C2.07883 17.8889 2.65572 18.2629 3.29262 18.5015C4.03468 18.778 4.8185 18.9273 5.61072 18.943C6.62887 18.9882 6.95386 19 9.54605 19C12.1382 19 12.4632 18.9891 13.4814 18.943C14.2736 18.9273 15.0574 18.778 15.7995 18.5015C16.4333 18.257 17.009 17.8835 17.4895 17.4049C17.9701 16.9263 18.345 16.3532 18.5903 15.7222C18.8682 14.9837 19.0182 14.2036 19.0339 13.4152C19.0794 12.4028 19.0903 12.078 19.0903 9.49955C19.0903 6.9211 19.0794 6.59631 19.033 5.58302C19.0172 4.79458 18.8672 4.01451 18.5894 3.27599C18.3497 2.64213 17.9738 2.06799 17.4881 1.59366C17.0114 1.11024 16.4346 0.736173 15.7977 0.497595C15.0556 0.221059 14.2718 0.071775 13.4795 0.0560926C12.4623 0.0108567 12.136 0 9.54514 0Z" fill="white"/>
<path d="M9.54424 4.62109C8.57478 4.62109 7.62709 4.9072 6.82102 5.44323C6.01495 5.97925 5.38669 6.74113 5.0157 7.63252C4.6447 8.5239 4.54763 9.50475 4.73676 10.451C4.9259 11.3973 5.39273 12.2665 6.07824 12.9488C6.76375 13.631 7.63714 14.0956 8.58797 14.2838C9.5388 14.4721 10.5244 14.3755 11.42 14.0062C12.3157 13.637 13.0812 13.0118 13.6198 12.2095C14.1584 11.4073 14.4459 10.4642 14.4459 9.49934C14.4459 8.20555 13.9295 6.96475 13.0102 6.0499C12.091 5.13505 10.8442 4.62109 9.54424 4.62109ZM9.54424 12.6659C8.91495 12.6659 8.2998 12.4801 7.77657 12.1322C7.25334 11.7843 6.84553 11.2897 6.60472 10.7111C6.3639 10.1325 6.30089 9.49583 6.42366 8.88158C6.54643 8.26734 6.84945 7.70312 7.29443 7.26027C7.7394 6.81743 8.30632 6.51585 8.92351 6.39367C9.54071 6.27148 10.1804 6.33419 10.7618 6.57386C11.3432 6.81352 11.8401 7.21939 12.1897 7.74012C12.5393 8.26085 12.7259 8.87306 12.7259 9.49934C12.7259 10.3392 12.3907 11.1446 11.794 11.7384C11.1974 12.3322 10.3881 12.6659 9.54424 12.6659Z" fill="white"/>
<path d="M14.6357 5.56895C15.2682 5.56895 15.7811 5.05858 15.7811 4.42901C15.7811 3.79943 15.2682 3.28906 14.6357 3.28906C14.0031 3.28906 13.4902 3.79943 13.4902 4.42901C13.4902 5.05858 14.0031 5.56895 14.6357 5.56895Z" fill="white"/>
</svg>
