<svg width="17" height="17" viewBox="0 0 17 17" fill="none" xmlns="http://www.w3.org/2000/svg">
<path d="M16.3258 15.716L12.4978 11.888H12.4566C13.6365 10.4969 14.2327 8.70334 14.1206 6.88266C14.0085 5.06197 13.1967 3.35516 11.8551 2.11925C10.5135 0.88335 8.74588 0.214095 6.92213 0.251486C5.09838 0.288878 3.35973 1.03002 2.06988 2.31988C0.780019 3.60973 0.0388779 5.34839 0.00148649 7.17213C-0.0359049 8.99588 0.63335 10.7635 1.86925 12.1051C3.10516 13.4467 4.81197 14.2585 6.63266 14.3706C8.45334 14.4827 10.2469 13.8865 11.638 12.7066C11.638 12.7066 11.638 12.7361 11.638 12.7478L15.466 16.5758C15.5207 16.631 15.5859 16.6748 15.6576 16.7047C15.7294 16.7346 15.8064 16.75 15.8841 16.75C15.9619 16.75 16.0388 16.7346 16.1106 16.7047C16.1824 16.6748 16.2475 16.631 16.3022 16.5758C16.3626 16.5223 16.4114 16.4571 16.4455 16.384C16.4796 16.3109 16.4983 16.2316 16.5005 16.151C16.5028 16.0704 16.4884 15.9902 16.4583 15.9154C16.4283 15.8405 16.3832 15.7727 16.3258 15.716ZM7.07393 13.1895C5.90916 13.1895 4.77055 12.8441 3.80208 12.197C2.83362 11.5499 2.07879 10.6302 1.63305 9.55406C1.18731 8.47795 1.07069 7.29384 1.29792 6.15145C1.52516 5.00907 2.08605 3.95972 2.90966 3.1361C3.73327 2.31249 4.78262 1.7516 5.92501 1.52437C7.06739 1.29713 8.25151 1.41376 9.32761 1.8595C10.4037 2.30523 11.3235 3.06006 11.9706 4.02853C12.6177 4.997 12.9631 6.1356 12.9631 7.30037C12.9631 8.07375 12.8108 8.83955 12.5148 9.55406C12.2188 10.2686 11.7851 10.9178 11.2382 11.4646C10.6913 12.0115 10.0421 12.4453 9.32761 12.7412C8.6131 13.0372 7.8473 13.1895 7.07393 13.1895Z" fill="#747474"/>
</svg>
