<svg width="23" height="23" viewBox="0 0 23 23" fill="none" xmlns="http://www.w3.org/2000/svg">
<path d="M11.25 0C5.03708 0 0 5.03708 0 11.25C0 17.4629 5.03708 22.5 11.25 22.5C17.4629 22.5 22.5 17.4629 22.5 11.25C22.5 5.03708 17.4629 0 11.25 0ZM16.4423 12.9808H11.25C11.0205 12.9808 10.8004 12.8896 10.6381 12.7273C10.4758 12.565 10.3846 12.3449 10.3846 12.1154V4.32692C10.3846 4.09741 10.4758 3.8773 10.6381 3.715C10.8004 3.55271 11.0205 3.46154 11.25 3.46154C11.4795 3.46154 11.6996 3.55271 11.8619 3.715C12.0242 3.8773 12.1154 4.09741 12.1154 4.32692V11.25H16.4423C16.6718 11.25 16.8919 11.3412 17.0542 11.5035C17.2165 11.6658 17.3077 11.8859 17.3077 12.1154C17.3077 12.3449 17.2165 12.565 17.0542 12.7273C16.8919 12.8896 16.6718 12.9808 16.4423 12.9808Z" fill="#C71002"/>
</svg>
